<?xml version="1.0" encoding="utf-8"?>
<!-- Svg Vector Icons : http://www.onlinewebfonts.com/icon -->
<!DOCTYPE svg PUBLIC "-//W3C//DTD SVG 1.1//EN" "http://www.w3.org/Graphics/SVG/1.1/DTD/svg11.dtd">
<svg version="1.1" xmlns="http://www.w3.org/2000/svg" xmlns:xlink="http://www.w3.org/1999/xlink" x="0px" y="0px" viewBox="0 0 1000 1000" enable-background="new 0 0 1000 1000" xml:space="preserve">
	<metadata>
		Svg Vector Icons : http://www.onlinewebfonts.com/icon
	</metadata>
	<g>
		<g>
			<path fill="#FAFAFA" d="M246.6,93.9H10v236.6h236.6V93.9z M208.2,292.2H48.4V132.3h159.9V292.2z M753.4,669.5v236.6H990V669.5H753.4z M951.6,867.7H791.8V707.8h159.9V867.7z M381.7,616.9h236.6V380.3H381.7V616.9z M420.1,418.6h159.9v159.9H420.1V418.6z M159.5,474.6h179.9v48h-211v-0.6h-16.8V365.9h48V474.6L159.5,474.6z M847.7,522.5h-199v-48h223v0.2h24v160.3h-48V522.5z" />
		</g>
	</g>
</svg>
